<?xml version="1.0" encoding="UTF-8"?>
<!DOCTYPE svg PUBLIC "-//W3C//DTD SVG 1.1//EN" "http://www.w3.org/Graphics/SVG/1.1/DTD/svg11.dtd">
<!-- Creator: CorelDRAW 2019 (64 Bit) -->
<svg xmlns="http://www.w3.org/2000/svg" xml:space="preserve" width="297mm" height="210mm" version="1.1" style="shape-rendering:geometricPrecision; text-rendering:geometricPrecision; image-rendering:optimizeQuality; fill-rule:evenodd; clip-rule:evenodd"
viewBox="0 0 29700 21000"
 xmlns:xlink="http://www.w3.org/1999/xlink">
 <defs>
  <style type="text/css">
   <![CDATA[
    .str0 {stroke:#FEFEFE;stroke-width:20;stroke-miterlimit:22.9256}
    .fil6 {fill:none}
    .fil3 {fill:#FEFEFE}
    .fil0 {fill:#282829}
    .fil1 {fill:#00AFEF}
    .fil2 {fill:#3E4095}
    .fil5 {fill:#61A706}
    .fil4 {fill:#979797}
   ]]>
  </style>
   <clipPath id="id0">
    <path d="M-0.53 7.13l29700 0 0 21000 -29700 0 0 -21000z"/>
   </clipPath>
    <clipPath id="id1">
     <path d="M125.48 2657.79l10166.62 0 0 4186.26 -10166.62 0 0 -4186.26z"/>
    </clipPath>
    <clipPath id="id2">
     <path d="M-0.53 7.13l29700 0 0 21000 -29700 0 0 -21000z"/>
    </clipPath>
    <clipPath id="id3">
     <path d="M13280.52 21007.13l-13281.05 0 0 -9677.68 13281.05 0 0 9677.68z"/>
    </clipPath>
    <clipPath id="id4">
     <path d="M-0.53 7.13l29700 0 0 21000 -29700 0 0 -21000z"/>
    </clipPath>
    <clipPath id="id5">
     <path d="M-0.53 14030.56l0 -6248.34 17263.54 0 0 6248.34 -17263.54 0z"/>
    </clipPath>
    <clipPath id="id6">
     <path d="M-0.53 7.13l29700 0 0 21000 -29700 0 0 -21000z"/>
    </clipPath>
    <clipPath id="id7">
     <path d="M16254.24 21007.13l-6268.48 0 0 -12639.69 6268.48 0 0 12639.69z"/>
    </clipPath>
    <clipPath id="id8">
     <path d="M16254.23 21007.13l0 -12639.69 -6268.47 0 0 12639.69 6268.47 0z"/>
    </clipPath>
    <clipPath id="id9">
     <path d="M16254.24 21007.13l-6268.48 0 0 -12639.69 6268.48 0 0 12639.69z"/>
    </clipPath>
    <clipPath id="id10">
     <path d="M-0.53 7.13l29700 0 0 21000 -29700 0 0 -21000z"/>
    </clipPath>
    <clipPath id="id11">
     <path d="M7453.84 7.13l6268.48 0 0 15772.74 -6268.48 0 0 -15772.74z"/>
    </clipPath>
    <clipPath id="id12">
     <path d="M7453.84 15779.87l6268.47 0 0 -15772.74 -6268.47 0 0 15772.74z"/>
    </clipPath>
    <clipPath id="id13">
     <path d="M7453.84 7.13l6268.48 0 0 15772.74 -6268.48 0 0 -15772.74z"/>
    </clipPath>
    <clipPath id="id14">
     <path d="M-0.53 7.13l29700 0 0 21000 -29700 0 0 -21000z"/>
    </clipPath>
    <clipPath id="id15">
     <path d="M-0.53 13977.64l0 -6248.34 14300.2 0 0 6248.34 -14300.2 0z"/>
    </clipPath>
    <clipPath id="id16">
     <path d="M-0.53 7.13l29700 0 0 21000 -29700 0 0 -21000z"/>
    </clipPath>
    <clipPath id="id17">
     <path d="M29699.47 14622.59l0 6384.54 -7376.41 0 0 -6384.54 7376.41 0z"/>
    </clipPath>
    <clipPath id="id18">
     <path d="M-0.53 7.13l29700 0 0 21000 -29700 0 0 -21000z"/>
    </clipPath>
    <clipPath id="id19">
     <path d="M29699.47 11118.08l0 4321.52 -3709.45 0 0 -4321.52 3709.45 0z"/>
    </clipPath>
    <clipPath id="id20">
     <path d="M-0.53 7.13l29700 0 0 21000 -29700 0 0 -21000z"/>
    </clipPath>
 </defs>
 <g id="Camada_x0020_1">
  <metadata id="CorelCorpID_0Corel-Layer"/>
  <polygon class="fil0" points="-0.53,7.13 29699.47,7.13 29699.47,21007.13 -0.53,21007.13 "/>
  <g style="clip-path:url(#id0)">
   <g id="_1804258420000">
   </g>
   <g style="clip-path:url(#id1)">
    <image x="125.48" y="2657.8" width="10166.61" height="4186.25" xlink:href="self-page-bg_Images\self-page-bg_ImgID1.png"/>
   </g>
   <g style="clip-path:url(#id2)">
   </g>
   <g style="clip-path:url(#id3)">
    <image x="-4746.42" y="11329.45" width="18026.94" height="11923.88" xlink:href="self-page-bg_Images\self-page-bg_ImgID2.png"/>
   </g>
   <g style="clip-path:url(#id4)">
    <path class="fil1" d="M-4782.59 -1663.1c7067.16,5141.01 4961.66,5454.14 12178.86,1433.65 -4775.89,1095.8 -8491.83,-667.75 -11155.86,-4926.63l-1023 3492.98z"/>
    <path class="fil2" d="M-4359.41 -3113.26c8057.74,5430.08 5755.56,5765.67 13671.57,1949.1 -5291.11,945.45 -9532.4,-1051.25 -12648.15,-5441.95l-1023.42 3492.85z"/>
    <rect class="fil3 str0" transform="matrix(0.280135 -0.959961 0.959961 0.280135 7198.95 -2230.04)" width="1771.57" height="264.58"/>
   </g>
   <g style="clip-path:url(#id5)">
    <image x="-2413.51" y="7782.22" width="19676.52" height="6248.34" xlink:href="self-page-bg_Images\self-page-bg_ImgID3.png"/>
   </g>
   <g style="clip-path:url(#id6)">
   </g>
   <g style="clip-path:url(#id7)">
   </g>
   <g style="clip-path:url(#id8)">
    <image x="9985.75" y="8367.44" width="6268.48" height="19682.9" xlink:href="self-page-bg_Images\self-page-bg_ImgID4.png"/>
   </g>
   <g style="clip-path:url(#id9)">
   </g>
   <g style="clip-path:url(#id10)">
   </g>
   <g style="clip-path:url(#id11)">
   </g>
   <g style="clip-path:url(#id12)">
    <image x="7453.83" y="-3903.03" width="6268.48" height="19682.9" xlink:href="self-page-bg_Images\self-page-bg_ImgID5.png"/>
   </g>
   <g style="clip-path:url(#id13)">
   </g>
   <g style="clip-path:url(#id14)">
   </g>
   <g style="clip-path:url(#id15)">
    <image x="-5376.85" y="7729.3" width="19676.52" height="6248.34" xlink:href="self-page-bg_Images\self-page-bg_ImgID6.png"/>
   </g>
   <g style="clip-path:url(#id16)">
    <g>
     <path id="path7" class="fil4" d="M20987.13 3104.2c-74.34,0 -142.43,19.58 -204.39,58.71 -61.94,39.16 -109.34,96.36 -143.06,171.84 -33.38,75.47 -50.4,163.86 -50.4,265.02 0,92.7 15.26,179.39 44.86,260.52 29.59,80.79 72.59,142.57 129.73,185.16 57.13,42.91 130.67,64.09 221.53,64.09 87.76,0 162.17,-27.71 222.74,-83.14 60.92,-55.43 102.87,-136.09 126.26,-241.64l-111.88 -32.57c-15.49,82.06 -44.63,143.58 -88.33,184.3 -43.03,41.35 -95.69,62.19 -158.31,62.19 -51.28,0 -98.85,-15.03 -142.9,-45.73 -44.05,-30.69 -76.35,-76.7 -97.34,-138.4 -20.99,-61.7 -31.35,-133.66 -31.35,-216.34 0,-63.89 8.95,-126.29 26.5,-186.73 17.56,-60.13 48.26,-108.41 91.63,-144.12 43.7,-35.69 97.59,-53.51 162.28,-53.51 56.44,0 103.31,16.4 140.47,48.66 37.17,32.27 65.44,83.87 85.04,154.34l109.82 -29.79c-22.36,-89.58 -62.72,-159.07 -120.2,-208.55 -57.12,-49.49 -128.38,-74.32 -212.7,-74.32l0 0.01zm3625.35 16.63l0 972.25 170.08 0 0 -406.18 34.64 0c39.58,0 68.2,3.71 86.43,10.9 17.89,7.22 35.09,20.95 51.27,40.36 16.17,19.73 46.53,67.08 90.24,142.56l122.11 212.37 203.68 0 -102.87 -189.85c-40.62,-75.47 -72.56,-128.05 -96.66,-157.8 -23.74,-29.75 -54.1,-56.67 -90.93,-81.41 73.99,-12.52 129.45,-42.29 166.63,-89.89 37.16,-47.29 55.76,-107.86 55.76,-180.84 0,-57.31 -12.45,-108.34 -36.89,-153.12 -24.43,-44.48 -57.07,-75.47 -98.03,-93.03 -40.62,-17.53 -106.42,-26.32 -196.58,-26.32l-358.88 0zm1092.74 0l-327.71 972.43 180.66 0 70.15 -221.36 338.78 -0.01 72.92 221.36 184.12 0.01 -338.27 -972.43 -180.65 0zm-2544.37 0.35l0 972.09 103.91 -0.01 0 -972.09 -103.91 0.01zm600.49 0l0 972.77 320.08 0c62.64,0 112.83,-6.83 150.35,-20.61 49.9,-18.48 89.92,-44.57 119.51,-77.78 39.23,-43.84 69.07,-101.04 90.07,-171.83 17.2,-57.94 25.8,-126.81 25.8,-206.99 0,-91.14 -9.13,-168.02 -27.37,-230.03 -18.57,-62.32 -45.09,-114.54 -80.53,-157.45 -35.1,-42.91 -77.92,-72.95 -127.14,-89.54 -36.82,-12.23 -90.18,-18.54 -160.39,-18.54l-310.38 0zm2405.99 0l198.66 972.09 187.07 -0.01 167.66 -726.81 166.63 726.81 182.38 0 203.34 -972.09 -171.3 0 -128.86 679.01 -147.23 -679 -202.99 0 -154.17 667.74 -125.39 -667.74 -175.8 0zm-2235.2 163.85l76.03 0c69.17,0 115.68,3.41 139.43,9.36 31.66,7.83 57.82,23.18 78.47,45.73 20.64,22.86 36.79,53.83 48.15,94.23 11.35,40.4 17.14,97.7 17.14,172.86 0,75.17 -5.44,134.72 -17.15,178.24 -11.35,43.54 -26.27,74.61 -44.52,93.71 -17.89,18.8 -40.88,32.53 -68.41,40.36 -20.99,6.27 -55.04,9.35 -102.54,9.35l-126.61 0.01 0 -643.85 0.01 0zm851.29 0.36l133.2 0c68.83,0 110.25,1.09 124.36,3.28 27.53,5.01 48.77,17.89 63.91,37.94 15.15,20.35 22.69,46.62 22.69,79.5 0,29.13 -5.44,53.68 -17.15,73.1 -11.35,19.73 -27.5,33.39 -47.8,41.22 -20.66,7.83 -71.56,11.95 -153.12,11.95l-126.09 0.01 0 -247zm1010.83 62.52l117.43 359.95 -231.4 0 113.97 -359.95zm-3454.22 25.47c-24.43,0 -46.38,8.1 -66.68,24.07 -20.31,15.97 -42.42,48.8 -66.16,98.91l0 -108.09 -93.19 0 0 704.81 104.61 0 0 -368.42c0,-50.43 5.45,-96.64 17.15,-138.93 7.58,-27.87 20.38,-49.63 38.27,-65.3 17.9,-15.66 37.75,-23.38 60.46,-23.38 25.12,0 50.22,8.14 75.34,24.42l36.89 -110.33c-36.13,-25.37 -71.59,-37.76 -106.69,-37.76zm418.11 0c-84.31,0 -152.76,32.58 -205.76,98.04 -52.66,65.14 -79.16,157.16 -79.16,275.24 0,114.32 26.16,203.31 78.46,266.58 52.32,63.57 123.22,95.09 212.35,95.09 71.24,0 129.34,-19.95 174.76,-59.41 45.78,-39.47 76.84,-95.61 93.71,-167.33l-107.4 -16.28c-15.82,50.73 -37.23,87.79 -63.73,110.34 -26.85,23.18 -59.14,34.64 -97,34.64 -50.93,0 -93.58,-20.63 -127.64,-61.67 -34.41,-41.02 -53.37,-100.5 -57.16,-177.55l455.35 0c0.36,-14.09 0.7,-24.79 0.7,-31.69 0,-116.2 -25.8,-206.01 -77.42,-270.22 -51.97,-63.88 -118.49,-95.78 -200.06,-95.78zm-1050.31 0.17c-75.71,0 -140.11,26.14 -192.43,78.13 -63.32,62.95 -94.56,158.97 -94.56,289.26 0,118.7 26.15,209.59 79.15,273.16 52.65,63.26 121.81,94.58 207.5,94.58 53.34,0 102.49,-14.15 147.56,-42.96 45.43,-28.81 80.01,-69.23 103.41,-120.9 23.74,-51.99 35.34,-123.06 35.34,-213.58 0,-111.81 -26.51,-199.15 -79.85,-262.42 -53.34,-63.57 -122.14,-95.27 -206.11,-95.27l-0.01 0zm1051 97.87c52.32,0 95.31,22.73 128,68.76 21.68,29.76 34.85,74.36 39.32,133.56l-340.69 0c3.79,-61.39 21.68,-110.6 53.69,-147.24 32.35,-36.64 72.2,-55.07 119.69,-55.07l-0.01 -0.01zm-1051.34 1.56c51.28,0 93.93,22.42 128.34,67.2 34.42,44.48 51.61,110.23 51.61,197.3 0,92.08 -17.19,160.68 -51.26,205.78 -34.41,44.78 -77.07,67.38 -128.69,67.38 -51.97,0 -94.98,-22.6 -129.38,-67.38 -34.08,-44.47 -51.27,-111.77 -51.27,-201.97 0,-89.88 16.85,-157.15 51.26,-201.62 34.42,-44.47 77.42,-66.69 129.38,-66.69l0.01 0z"/>
     <path id="path25" class="fil4" d="M23814.63 4233.39c-39.92,0 -75.76,10.34 -106.38,30.7 -30.98,20.36 -54.27,51.53 -70.79,93.82 -16.18,42.28 -24.48,87.74 -24.48,136.29 0,49.17 8.22,93.61 24.75,133.38 16.52,39.77 40.95,70.19 73.3,91.17 32.35,21.3 68.52,31.63 108.1,31.63 29.25,0 57.86,-6.17 85.74,-19.32 27.87,-13.16 55.08,-32.63 81.24,-58.62l0 -185.52 -170.82 0 0 58.62 118.16 0 0 93.68c-11.36,12.85 -27.86,24.45 -49.88,35.73 -21.69,10.96 -44.56,16.54 -67.62,16.54 -26.49,0 -51.53,-7.56 -75.28,-21.96 -23.75,-14.73 -41.6,-36.89 -53.99,-66.96 -12.39,-30.06 -18.66,-67.29 -18.66,-112.08 0,-36.32 5.16,-69.82 15.48,-100.83 6.2,-17.85 14.4,-34.59 25.41,-49.62 11.01,-15.03 25.24,-27.3 43.13,-36.38 17.9,-9.08 38.82,-13.63 63.25,-13.63 20.3,0 38.92,4.46 55.44,13.23 16.86,8.45 29.69,20.39 38.64,34.8 8.6,14.72 16.16,34.7 22.36,60.07l48.16 -16.27c-7.22,-33.83 -17.27,-61.19 -30.69,-82.17 -13.43,-20.67 -32.04,-36.92 -55.45,-48.83 -23.74,-11.58 -49.87,-17.46 -79.12,-17.46l0 -0.01zm2362.34 0c-27.19,0 -51.94,5.93 -73.97,17.21 -22.37,11.58 -38.84,28.09 -50.54,50.01 -11.36,21.93 -17.34,45.43 -17.34,70.8 0,22.86 4.53,43.98 14.16,62.45 9.64,18.48 23.73,34.05 43,46.58 14.8,10.02 40.64,20.4 77.8,31.36 37.17,11.28 61.18,19.34 71.85,24.35 17.21,8.14 29.29,17.92 36.52,29.51 7.23,11.9 11.11,25.36 11.11,41.02 0,15.35 -3.94,29.86 -11.51,43.01 -7.57,13.15 -19.31,23.44 -34.8,30.96 -15.83,7.52 -33.68,11.25 -53.99,11.25 -23.05,0 -43.55,-5.06 -61.79,-15.09 -18.24,-10.02 -32.14,-23.19 -40.75,-39.16 -8.6,-16.29 -14,-36.88 -16.41,-61.93l-50.28 5.56c0.7,33.51 7.83,63.22 22.63,89.84 13.77,26.63 33.17,46.39 57.95,59.55 24.44,13.15 54.95,19.71 91.43,19.71 28.91,0 54.75,-6.16 77.8,-19.32 23.06,-13.15 40.54,-31.42 52.93,-54.91 12.04,-23.49 18.39,-48.54 18.39,-75.16 0,-26.62 -5.93,-50.31 -16.94,-70.66 -11.36,-20.36 -28.6,-37.35 -52,-50.81 -15.83,-9.09 -45.69,-19.81 -89.05,-32.02 -43.36,-12.22 -70.25,-24.14 -80.58,-35.73 -10.67,-11.9 -15.88,-26.48 -15.88,-44.33 0,-20.98 7.17,-38.6 21.97,-53.33 14.8,-14.72 38.3,-21.83 70.66,-21.83 30.97,0 54.29,7.8 70.12,24.08 15.83,15.97 25.17,39.69 27.92,71.32l51.34 -5.03c-1.03,-29.43 -7.59,-55.82 -19.98,-78.99 -12.39,-23.18 -29.95,-40.49 -52.66,-52.4 -23.06,-11.9 -49.18,-17.86 -79.12,-17.86l0.01 -0.01zm-1304.09 8.34l0 500.58 49.61 0 0 -197.95c0,-28.5 2.7,-50.72 8.21,-66.69 5.5,-16.29 14.92,-29.11 27.65,-38.51 13.08,-9.39 26.7,-14.16 41.15,-14.16 19.27,0 34.58,6.81 45.25,20.91 10.33,14.09 15.75,36.39 15.75,67.08l0 229.32 49.48 0 0 -229.71c0,-35.39 -3.3,-62.5 -10.19,-80.98 -6.88,-18.8 -18.3,-33.29 -34.13,-43.94 -15.83,-10.65 -34.77,-15.88 -56.11,-15.88 -35.1,0 -64,16.5 -87.06,50.02l0 -180.09 -49.61 0zm313.18 0l0 69.99 49.75 0.01 0 -70 -49.75 0zm1534.19 0l0 69.99 49.62 0.01 0 -70 -49.62 0zm188.42 11.12l-49.49 36.78 0 89.32 -36.38 -0.01 0 47.64 36.38 0 0 208.81c0,36.96 1.7,61.19 5.83,72.77 4.12,11.59 10.92,20.72 20.9,27.93 9.98,7.2 23.92,10.58 41.81,10.58 10.67,0 23.29,-1.66 37.05,-5.42l-6.74 -53.99c-8.95,1.57 -16.36,2.3 -21.17,1.99 -7.23,0 -13.02,-1.42 -16.81,-4.24 -4.13,-2.82 -6.88,-7.03 -8.6,-12.04 -2.07,-5.02 -2.78,-16.2 -2.78,-33.74l0 -212.38 49.75 -0.01 0 -47.63 -49.75 0 0 -126.37 0 0.01zm-2743.01 118.95c-11.36,0 -21.99,4.03 -31.62,12.18 -9.64,8.14 -20.4,24.99 -31.76,50.68l0 -55.44 -44.33 -0.01 0 363.1 49.62 0 0 -189.48c0,-26 2.7,-49.8 8.21,-71.72 3.44,-14.41 9.65,-25.47 18.26,-33.61 8.6,-8.14 18.17,-12.17 28.84,-12.17 12.04,0 24.21,4.11 36.25,12.56l17.47 -56.63c-17.21,-12.85 -34.08,-19.46 -50.94,-19.46l0 0zm523.43 0c-18.92,0 -35,4.55 -48.42,13.63 -13.43,9.09 -25.59,22.94 -36.26,41.42l0 -47.64 -44.99 0 0 501.77 49.22 0 0 -176.92c8.61,13.16 19.21,23.78 32.29,32.55 13.08,8.46 27.8,12.84 44.33,12.84 22.36,0 44.13,-7.76 64.43,-23.42 20.65,-15.66 36.17,-38.71 46.84,-68.15 10.67,-29.75 16.28,-62.81 16.28,-99.77 0,-34.45 -4.92,-66.15 -14.56,-95.27 -9.64,-29.13 -24.07,-51.38 -43,-67.35 -19.27,-15.97 -41.04,-23.69 -66.16,-23.69l0 0zm740.96 0c-25.12,0 -48.12,7.12 -69.46,21.84 -21.68,14.4 -37.44,36.63 -47.76,65.76 -10.67,29.44 -15.88,63.67 -15.88,102.82 0,60.44 12.08,106.81 36.52,139.07 24.43,32.26 56.4,48.43 96.32,48.43 31.66,0 58.42,-11.44 80.45,-34.93 21.68,-23.49 35.25,-55.92 40.75,-97.26l-48.69 -8.47c-3.44,30.69 -11.61,53.69 -24.34,68.41 -13.08,15.04 -29.34,22.23 -48.96,22.23 -24.09,0 -43.74,-11.29 -58.88,-33.21 -14.8,-21.92 -22.23,-57.32 -22.23,-105.86 0,-47.92 7.81,-82.96 23.29,-105.2 15.49,-22.23 35.87,-33.21 61,-33.21 16.52,0 30.5,6.31 42.21,18.53 11.7,12.21 20.13,30.35 24.61,54.78l47.9 -9.13c-5.86,-36.65 -18.73,-64.78 -39.04,-84.82 -19.96,-19.73 -46.13,-29.77 -77.8,-29.77l-0.01 -0.01zm259.21 0c-15.14,0 -29.18,2.14 -42.61,7.15 -13.08,5.01 -23.78,10.84 -31.36,17.73 -10.32,9.08 -18.62,20.62 -24.47,34.4 -5.85,13.78 -9,28.31 -9,44.59 0,17.85 3.89,34.15 11.12,48.56 7.22,14.72 17.51,25.95 31.62,34.4 14.11,8.46 39.28,18.24 75.42,29.51 26.84,8.77 43.66,15.27 50.54,20.91 9.98,7.83 14.69,18.77 14.69,32.55 0,15.35 -5.4,29.35 -16.41,40.63 -11.35,11.59 -28.22,17.07 -50.94,17.07 -22.37,0 -39.93,-6.48 -52.66,-19.32 -12.74,-13.16 -20.27,-31.68 -23.02,-56.1l-48.83 9.65c5.51,38.52 18.2,67.34 38.51,87.07 19.62,19.42 48.81,29.11 86.66,29.11 22.71,0 43.42,-4.67 61.66,-14.69 18.24,-10.02 32.04,-23.78 41.68,-41.94 9.64,-18.17 14.42,-37.34 14.42,-57.7 0,-20.98 -4.12,-38.57 -12.04,-52.66 -7.91,-14.1 -19.04,-24.95 -32.81,-32.16 -14.11,-7.51 -38.41,-16.86 -73.17,-28.44 -24.44,-8.15 -38.85,-13.56 -43.67,-15.75 -8.6,-4.38 -14.92,-9.7 -19.05,-16.28 -3.79,-6.58 -5.69,-13.6 -5.69,-21.43 0,-12.21 4.65,-23.42 14.29,-32.81 9.64,-9.4 25.85,-14.03 48.56,-14.03 19.27,0 34.18,5.36 44.85,16.01 10.33,10.65 16.86,25.28 18.92,44.07l48.43 -8.47c-3.1,-23.49 -8.55,-42.15 -16.8,-56.24 -8.26,-13.78 -21.43,-25.08 -38.64,-33.22 -17.21,-8.14 -37.15,-12.17 -60.2,-12.17l0 0zm1436.93 0c-40.26,0 -73.19,16.91 -98.31,50.42 -25.12,33.51 -37.97,80.69 -37.97,141.45 0,58.88 12.45,104.64 37.57,137.22 25.13,32.57 58.81,48.82 101.49,48.82 34.07,0 61.94,-10.21 83.62,-30.56 21.68,-20.36 36.81,-49.19 44.72,-86.15l-51.2 -8.47c-7.57,26.31 -17.68,45 -31.1,56.9 -12.74,11.9 -28.2,17.86 -46.44,17.86 -24.44,0 -44.69,-10.64 -60.86,-31.62 -16.18,-20.99 -25.54,-51.4 -27.26,-91.17l217.92 0.01c0.35,-7.21 0.27,-12.52 0.27,-16.28 0,-59.82 -12.27,-106.05 -37.05,-138.94 -24.44,-33.2 -56.51,-49.49 -95.4,-49.49zm-2756.11 0.4c-25.12,0 -47.36,4.25 -66.29,12.71 -19.27,8.77 -34.08,20.68 -44.06,36.65 -9.98,15.66 -17.36,36.64 -21.83,62.33l48.69 8.47c5.51,-25.69 13.73,-43.83 24.75,-53.86 11.01,-10.33 28.2,-15.48 51.6,-15.48 24.77,0 43.63,7 56.36,20.78 9.3,10.02 14.16,27.48 14.16,52.53 0,2.19 0.08,7.69 -0.27,16.14 -18.92,8.14 -48.59,14.96 -88.51,20.91 -19.62,2.82 -34.43,5.87 -44.06,9 -13.43,4.38 -25.19,11.34 -35.86,20.11 -10.33,8.77 -18.87,20.35 -25.41,35.06 -6.19,14.73 -9.52,31.03 -9.52,48.57 0,30.06 8.59,54.81 25.8,74.23 17.2,19.42 41.95,29.11 73.96,29.11 19.61,0 37.78,-3.63 54.65,-11.78 16.86,-7.83 34.81,-21.73 53.06,-41.15 1.37,17.54 4.31,32.63 9.13,45.78l52 0c-5.85,-14.1 -9.85,-28.46 -11.91,-43.8 -2.06,-15.03 -3.17,-51.1 -3.17,-108.11l0 -81.37c0,-26.94 -0.66,-46.17 -2.38,-56.51 -3.1,-16.91 -8.25,-30.98 -15.48,-41.94 -7.23,-11.28 -18.92,-20.33 -34.4,-27.53 -15.49,-7.2 -35.88,-10.85 -61,-10.85l-0.01 0zm815.98 7.01l0 362.7 49.75 0 0 -362.7 -49.75 0zm1534.19 0l0 362.7 49.62 0 0 -362.7 -49.62 0zm-314.77 0.67l0 224.15c0,26 0.97,45.22 3.04,57.43 2.75,17.85 7.99,32.99 15.22,45.52 7.22,12.22 18.54,22.56 33.34,30.7 14.8,8.14 30.96,12.04 48.17,12.04 38.89,0 69.9,-20.63 92.62,-61.66l0 54.65 43.92 0 0 -362.84 -49.49 0 0 193.86c0,31 -2.43,54.63 -7.94,70.92 -5.5,16.29 -14.44,28.98 -27.52,38.38 -13.08,9.39 -26.88,14.02 -41.68,14.02 -14.8,0 -27.2,-4.54 -37.18,-13.63 -10.33,-9.08 -16.88,-21.69 -19.98,-37.98 -2.06,-11.28 -3.04,-32.76 -3.04,-64.7l0 -200.87 -49.48 0 0 0.01zm-1721.15 40.09c21.34,0 39.5,11.54 54.65,34.4 15.48,22.87 23.02,57.44 23.02,103.48 0,48.55 -7.46,83.88 -23.29,107.05 -15.83,22.87 -34.34,34.4 -56.37,34.4 -21.33,0 -39.9,-11.1 -55.04,-33.34 -15.14,-22.24 -22.89,-56.73 -22.89,-103.08 0,-46.35 8.39,-81.83 24.22,-106.25 16.17,-24.43 34.71,-36.65 55.7,-36.65l0 -0.01zm2442.52 2.25c25.12,0 45.56,11.84 61.4,35.33 9.98,15.35 16.46,38.16 18.52,68.55l-162.88 -0.01c1.72,-31.63 9.97,-56.89 25.8,-75.68 15.49,-18.79 34.45,-28.19 57.16,-28.19zm-2693.39 138.01l-0.26 22.5c0,26.93 -2.56,47.35 -8.07,61.13 -6.89,17.85 -17.89,32 -32.69,42.34 -14.79,10.33 -32.01,15.35 -50.94,15.35 -19.27,0 -33.95,-5.31 -43.93,-16.28 -10.32,-10.96 -15.08,-24.33 -15.08,-40.62 0,-10.65 2.27,-20.35 6.74,-29.11 4.82,-8.46 11.12,-15.47 19.72,-19.85 8.26,-4.38 22.96,-8.42 43.27,-12.18 36.13,-6.26 63.34,-14.2 81.24,-23.28l0 0z"/>
     <polygon id="polygon57" class="fil5" points="29007.43,4340.38 28165.24,4347.99 28290.28,4803.14 28890.75,4803.15 "/>
     <path id="path59" class="fil4" d="M28275.47 -364.3c-87.03,3.8 -68.49,-1.48 -158.55,20.66 -2208.08,541.27 -807.16,3476.26 214.41,4349.21l85.49 64.08c-705.74,-1101.22 -1876.25,-3753.65 -141.34,-4433.95l-0.01 0zm652.05 0c1734.93,680.3 564.79,3332.73 -141.35,4433.95l85.49 -64.08c1021.59,-872.95 2422.52,-3807.94 214.43,-4349.21 -90.08,-22.14 -71.54,-16.85 -158.57,-20.67l0 0.01zm-344.09 30.61c-169.4,9.96 -320.4,167.27 -395.74,299.35 -492.17,862.93 -177.91,2351.18 52.02,3233.46l77.46 302.62c50.93,175.34 108.81,330.96 161.25,524.3l22.76 64.27 14.54 28.7 144.79 0.76 17.02 -7.65 20.85 -44.96c89.32,-209.24 323.96,-1102.26 372.6,-1330.18 132.25,-618.39 231.31,-1248.59 183.04,-1880.13 -18.24,-238.64 -67.58,-505.32 -165.64,-728.41 -74.87,-171.19 -187.4,-367.3 -385.41,-443.39 -40.34,-15.51 -80.46,-21.06 -119.55,-18.75l0.01 0.01zm-1179 202.38c-434.4,183.99 -768.05,583.5 -839.88,1016.86l-16.82 184.01 1.9 148.06 22.76 163.16 12.64 77.86c171.01,856.68 953.21,1979.83 1641.48,2575.06 -951.63,-1155.52 -2387.88,-2983.56 -822.08,-4165.01zm2394.33 0c1565.81,1181.46 129.57,3009.49 -822.46,4165 688.26,-595.22 1470.28,-1718.36 1641.3,-2575.06l12.63 -77.85 22.76 -163.16 2.3 -148.05 -16.64 -184.03c-71.83,-433.35 -405.49,-832.86 -839.87,-1016.85l-0.02 0z"/>
    </g>
   </g>
   <g style="clip-path:url(#id17)">
    <image x="22323.06" y="14622.59" width="8333.2" height="8110.98" xlink:href="self-page-bg_Images\self-page-bg_ImgID7.png"/>
   </g>
   <g style="clip-path:url(#id18)">
   </g>
   <g style="clip-path:url(#id19)">
    <image x="25990.02" y="11118.09" width="4321.51" height="4321.51" xlink:href="self-page-bg_Images\self-page-bg_ImgID8.png"/>
   </g>
   <g style="clip-path:url(#id20)">
   </g>
  </g>
  <polygon class="fil6" points="-0.53,7.13 29699.47,7.13 29699.47,21007.13 -0.53,21007.13 "/>
 </g>
</svg>
